<svg width="129" height="69" viewBox="0 0 129 69" fill="none" xmlns="http://www.w3.org/2000/svg">
<path d="M24 68H13.44L12.864 51.968H10.176L9.6 68H0L5.28 0.799995H18.72L24 68ZM12.576 43.328L11.904 22.976L11.616 11.36H11.424L11.136 22.976L10.464 43.328H12.576ZM36.48 10.304C36.48 9.344 36.16 8.86399 35.52 8.86399C34.88 8.86399 34.56 9.344 34.56 10.304V58.496C34.56 59.456 34.88 59.936 35.52 59.936C36.16 59.936 36.48 59.456 36.48 58.496V39.584H46.08V58.016C46.08 61.408 45.088 64.032 43.104 65.888C41.12 67.68 38.592 68.576 35.52 68.576C32.448 68.576 29.92 67.68 27.936 65.888C25.952 64.032 24.96 61.408 24.96 58.016V10.784C24.96 7.456 25.952 4.864 27.936 3.008C29.984 1.152 32.544 0.223997 35.616 0.223997C38.688 0.223997 41.184 1.152 43.104 3.008C45.088 4.8 46.08 7.392 46.08 10.784V26.24H36.48V10.304ZM66.7425 9.44H61.9425V68H52.3425V9.44H47.5425V0.799995H66.7425V9.44ZM77.7788 68H68.1788V0.799995H77.7788V68ZM100.83 58.016C100.83 61.408 99.838 64.032 97.854 65.888C95.87 67.68 93.342 68.576 90.27 68.576C87.198 68.576 84.67 67.68 82.686 65.888C80.702 64.032 79.71 61.408 79.71 58.016V10.784C79.71 7.456 80.702 4.864 82.686 3.008C84.734 1.152 87.294 0.223997 90.366 0.223997C93.438 0.223997 95.934 1.152 97.854 3.008C99.838 4.8 100.83 7.392 100.83 10.784V58.016ZM91.23 10.304C91.23 9.344 90.91 8.86399 90.27 8.86399C89.63 8.86399 89.31 9.344 89.31 10.304V58.496C89.31 59.456 89.63 59.936 90.27 59.936C90.91 59.936 91.23 59.456 91.23 58.496V10.304ZM128.693 68H116.693L110.069 16.16H109.877L111.413 37.76L111.893 68H102.773V0.799995H114.773L121.397 52.64H121.589L120.053 31.04L119.573 0.799995H128.693V68Z" fill="white"/>
</svg>
