<svg width="32" height="32" viewBox="0 0 32 32" fill="none" xmlns="http://www.w3.org/2000/svg">
<path d="M25.9959 10.6521L15.9999 20.3961L6.00391 10.6521C5.82532 10.4776 5.58557 10.3799 5.33591 10.3799C5.08625 10.3799 4.8465 10.4776 4.66791 10.6521C4.58143 10.7368 4.51273 10.8379 4.46583 10.9495C4.41893 11.0611 4.39478 11.181 4.39478 11.3021C4.39478 11.4231 4.41893 11.543 4.46583 11.6546C4.51273 11.7662 4.58143 11.8673 4.66791 11.9521L15.3019 22.3201C15.4887 22.5021 15.7391 22.604 15.9999 22.604C16.2607 22.604 16.5112 22.5021 16.6979 22.3201L27.3319 11.9541C27.419 11.8693 27.4882 11.7679 27.5355 11.6559C27.5827 11.5439 27.6071 11.4236 27.6071 11.3021C27.6071 11.1805 27.5827 11.0602 27.5355 10.9482C27.4882 10.8362 27.419 10.7349 27.3319 10.6501C27.1533 10.4756 26.9136 10.3779 26.6639 10.3779C26.4143 10.3779 26.1745 10.4756 25.9959 10.6501V10.6521Z" fill="white"/>
</svg>
