<svg width="32" height="32" viewBox="0 0 32 32" fill="none" xmlns="http://www.w3.org/2000/svg">
<path d="M15.2761 10.7604L4.65607 21.9064C4.47878 22.0924 4.37988 22.3395 4.37988 22.5964C4.37988 22.8533 4.47878 23.1004 4.65607 23.2864L4.66807 23.2984C4.75402 23.3889 4.85747 23.4609 4.97214 23.5101C5.0868 23.5594 5.21029 23.5847 5.33507 23.5847C5.45986 23.5847 5.58334 23.5594 5.69801 23.5101C5.81267 23.4609 5.91613 23.3889 6.00207 23.2984L16.0021 12.8024L25.9981 23.2984C26.084 23.3889 26.1875 23.4609 26.3021 23.5101C26.4168 23.5594 26.5403 23.5847 26.6651 23.5847C26.7899 23.5847 26.9133 23.5594 27.028 23.5101C27.1427 23.4609 27.2461 23.3889 27.3321 23.2984L27.3441 23.2864C27.5214 23.1004 27.6203 22.8533 27.6203 22.5964C27.6203 22.3395 27.5214 22.0924 27.3441 21.9064L16.7241 10.7604C16.6307 10.6624 16.5184 10.5843 16.3939 10.531C16.2694 10.4777 16.1355 10.4502 16.0001 10.4502C15.8647 10.4502 15.7307 10.4777 15.6062 10.531C15.4818 10.5843 15.3695 10.6624 15.2761 10.7604Z" fill="white"/>
</svg>
