<svg width="32" height="32" viewBox="0 0 32 32" fill="none" xmlns="http://www.w3.org/2000/svg">
<path d="M19.0439 4.66776L8.6799 15.2998C8.49787 15.4865 8.396 15.737 8.396 15.9978C8.396 16.2585 8.49787 16.509 8.6799 16.6958L19.0439 27.3318C19.1287 27.4188 19.2301 27.4881 19.3421 27.5353C19.454 27.5826 19.5743 27.6069 19.6959 27.6069C19.8174 27.6069 19.9378 27.5826 20.0497 27.5353C20.1617 27.4881 20.2631 27.4188 20.3479 27.3318C20.5224 27.1532 20.62 26.9134 20.62 26.6638C20.62 26.4141 20.5224 26.1743 20.3479 25.9958L10.6019 15.9978L20.3479 6.00176C20.5218 5.82326 20.6191 5.58393 20.6191 5.33476C20.6191 5.08558 20.5218 4.84625 20.3479 4.66776C20.2631 4.58067 20.1617 4.51145 20.0497 4.46419C19.9378 4.41693 19.8174 4.39258 19.6959 4.39258C19.5743 4.39258 19.454 4.41693 19.3421 4.46419C19.2301 4.51145 19.1287 4.58067 19.0439 4.66776Z" fill="white"/>
</svg>
