<svg width="32" height="32" viewBox="0 0 32 32" fill="none" xmlns="http://www.w3.org/2000/svg">
<path d="M10.652 4.66576C10.4776 4.84435 10.3799 5.0841 10.3799 5.33376C10.3799 5.58342 10.4776 5.82317 10.652 6.00176L20.398 15.9998L10.652 25.9958C10.4776 26.1743 10.3799 26.4141 10.3799 26.6638C10.3799 26.9134 10.4776 27.1532 10.652 27.3318C10.7368 27.4188 10.8382 27.4881 10.9502 27.5353C11.0622 27.5826 11.1825 27.6069 11.304 27.6069C11.4256 27.6069 11.5459 27.5826 11.6579 27.5353C11.7698 27.4881 11.8712 27.4188 11.956 27.3318L22.32 16.6978C22.502 16.511 22.6039 16.2605 22.6039 15.9998C22.6039 15.739 22.502 15.4885 22.32 15.3018L11.956 4.66776C11.8712 4.58067 11.7698 4.51145 11.6579 4.46419C11.5459 4.41693 11.4256 4.39258 11.304 4.39258C11.1825 4.39258 11.0622 4.41693 10.9502 4.46419C10.8382 4.51145 10.7368 4.58067 10.652 4.66776V4.66576Z" fill="white"/>
</svg>
