<svg width="462" height="172" preserveAspectRatio="none" viewBox="0 0 462 172" fill="none" xmlns="http://www.w3.org/2000/svg">
<mask id="path-1-outside-1_529_651" maskUnits="userSpaceOnUse" x="-1" y="-1" width="463" height="174" fill="black">
<rect fill="white" x="-1" y="-1" width="463" height="174"/>
<path d="M423.021 131.02C434.071 124.603 443.138 117.922 448 110.166C449.571 107.649 450.747 105.081 451.519 102.483C452.386 99.5798 452.646 96.6348 453.071 93.7041C453.363 91.6939 453.632 89.701 454.234 87.6903C455.006 85.1128 453.468 82.3634 452.642 79.7071C452.037 77.7629 450.588 75.8673 450.191 73.92C448.868 67.4542 445.976 61.1649 440.556 55.1966C435.617 49.7586 430.257 44.4016 424.801 39.0726C423.002 37.3142 420.614 35.6439 417.992 34.1256C412.233 30.791 406.533 27.4012 400.093 24.3697C394.188 21.5906 387.914 18.793 380.769 16.8385C372.139 14.4782 362.459 12.9527 353.154 11.1564C348.924 10.3399 344.462 9.79269 340.178 9.032C329.893 7.2045 319.244 6.16226 308.357 5.54132C295.617 4.81441 283.047 3.63601 270.138 3.27C262.933 3.06575 255.674 3.00278 248.461 2.74171C244.937 2.61476 241.456 2.15148 237.936 2.08954C228.331 1.9201 218.826 2.32809 209.457 3.42664C207.593 3.64522 205.515 3.46503 203.535 3.45684C196.13 3.42715 188.956 4.08188 181.722 4.78626C175.889 5.35447 169.797 5.44303 163.806 5.51982C156.887 5.60889 150.207 6.14741 143.46 6.84463C140.235 7.17788 136.517 6.45968 133.026 6.20372C132.829 6.18939 132.503 5.98872 132.524 5.9749C132.764 5.82286 133.011 5.61503 133.351 5.56487C135.108 5.30482 136.868 4.95314 138.671 4.87789C145.632 4.58662 152.644 4.52263 159.571 4.12181C167.962 3.63652 176.286 2.89682 184.639 2.26564C188.582 1.9672 192.504 1.57406 196.469 1.38465C202.929 1.07546 209.413 0.862508 215.894 0.674639C225.088 0.408448 234.345 -0.206861 243.474 0.0700792C255.19 0.424829 267.014 0.246685 278.65 1.32322C283.787 1.79827 289.109 1.8382 294.35 2.06037C303.254 2.43713 311.973 3.38978 320.761 4.00919C331.218 4.74582 341.171 6.04299 351.038 7.65446C364.291 9.8188 377.5 12.1341 388.87 16.0717C398.498 19.4068 408.081 22.6891 415.155 27.5681C419.889 30.834 426.098 33.7345 430.472 37.2001C432.916 39.1356 434.696 41.2569 436.753 43.2999C439.592 46.12 442.623 48.9027 445.187 51.7776C449.663 56.7963 453.691 61.8314 454.784 67.3892C455.769 72.3976 459.291 77.2976 460.233 82.3061C460.813 85.3888 461.667 88.5948 459.292 91.8193C457.719 93.9545 458.307 96.4904 457.872 98.8293C457.045 103.281 455.149 107.596 453.011 111.899C451.271 115.403 446.983 118.432 443.143 121.477C439.095 124.686 434.144 127.643 429.619 130.72C428.834 131.254 428.377 131.91 427.479 132.389C422.993 134.787 418.746 137.315 413.779 139.474C406.93 142.45 399.646 145.216 392.31 147.931C376.584 153.751 358.251 157.485 340.733 161.851C335.532 163.148 329.666 163.936 323.937 164.666C310.335 166.398 296.674 168.025 282.959 169.546C278.588 170.031 273.704 169.677 269.55 170.366C262.119 171.597 254.439 170.703 246.874 171.491C241.101 172.092 234.333 172.387 228.2 171.065C226.971 170.801 225.293 170.98 223.822 170.984C205 171.042 186.747 169.559 168.797 166.885C157.595 165.215 145.945 164.209 134.738 162.544C125.824 161.22 117.286 159.337 108.564 157.722C93.2317 154.882 79.1882 150.953 65.7056 146.548C62.8121 145.603 59.6892 144.756 57.1783 143.618C45.774 138.448 33.7424 133.498 26.7902 126.578C22.2978 122.104 17.8163 117.625 13.6173 113.089C9.60318 108.753 5.08903 104.5 2.6325 99.8746C2.29555 99.2404 1.80424 98.6056 1.72924 97.9622C1.42598 95.374 1.44011 92.8129 0.517279 90.2022C-0.397942 87.6166 -0.221854 84.5262 2.04989 82.217C4.95751 79.2612 3.21294 75.8207 7.59339 73.1619C8.84339 72.4022 9.58905 71.4619 10.6064 70.6147C20.3293 62.522 33.6717 55.8037 48.3479 49.7556C55.9642 46.6166 64.0349 43.5569 73.8186 41.6936C80.1697 40.4839 85.6991 38.3483 91.9654 37.0097C103.614 34.5203 115.408 32.1522 127.375 30.0252C140.225 27.7421 153.253 25.6551 166.371 23.737C181.589 21.5122 196.843 19.3679 212.582 17.9525C217.548 17.5061 221.734 17.7113 226.254 18.1429C226.715 18.1869 227.318 18.6015 227.305 18.8375C227.292 19.0669 226.627 19.4447 226.152 19.4815C224.947 19.5742 223.672 19.5726 222.454 19.503C214.194 19.0305 206.205 20.0999 198.502 21.0193C182.044 22.984 165.79 25.3822 149.696 27.9418C135.191 30.2489 120.764 32.746 106.758 35.6439C93.9741 38.2889 81.7339 41.5272 69.3903 44.6237C64.8925 45.752 60.4925 47.0563 56.5555 48.572C42.3326 54.0474 29.1587 60.0198 19.3489 67.4219C12.8412 72.3316 7.68361 77.4332 5.84556 83.3242C4.95642 86.173 4.26946 89.0002 4.83034 91.7727C5.95425 97.309 7.75861 102.775 13.4217 107.88C18.588 112.538 22.1804 117.576 27.0054 122.325C34.5196 129.72 50.4598 138.964 61.3675 142.863C75.6273 147.962 90.9839 152.161 107.285 155.632C122.589 158.891 138.259 161.58 154.693 163.355C166.798 164.663 178.628 166.529 190.672 167.977C195.226 168.525 200.071 168.509 204.725 168.906C215.357 169.811 226.157 169.2 236.744 169.741C241.495 169.984 245.809 169.337 250.411 169.502C255.098 169.669 259.871 169.36 264.674 169.037C279.74 168.024 294.336 166.084 309.214 164.757C317.25 164.04 324.504 162.432 332.143 161.275C344.117 159.462 354.373 156.145 365.498 153.608C379.936 150.314 392.286 145.858 403.99 140.783C410.838 137.814 416.519 134.427 423.021 131.02Z"/>
</mask>
<path d="M423.021 131.02C434.071 124.603 443.138 117.922 448 110.166C449.571 107.649 450.747 105.081 451.519 102.483C452.386 99.5798 452.646 96.6348 453.071 93.7041C453.363 91.6939 453.632 89.701 454.234 87.6903C455.006 85.1128 453.468 82.3634 452.642 79.7071C452.037 77.7629 450.588 75.8673 450.191 73.92C448.868 67.4542 445.976 61.1649 440.556 55.1966C435.617 49.7586 430.257 44.4016 424.801 39.0726C423.002 37.3142 420.614 35.6439 417.992 34.1256C412.233 30.791 406.533 27.4012 400.093 24.3697C394.188 21.5906 387.914 18.793 380.769 16.8385C372.139 14.4782 362.459 12.9527 353.154 11.1564C348.924 10.3399 344.462 9.79269 340.178 9.032C329.893 7.2045 319.244 6.16226 308.357 5.54132C295.617 4.81441 283.047 3.63601 270.138 3.27C262.933 3.06575 255.674 3.00278 248.461 2.74171C244.937 2.61476 241.456 2.15148 237.936 2.08954C228.331 1.9201 218.826 2.32809 209.457 3.42664C207.593 3.64522 205.515 3.46503 203.535 3.45684C196.13 3.42715 188.956 4.08188 181.722 4.78626C175.889 5.35447 169.797 5.44303 163.806 5.51982C156.887 5.60889 150.207 6.14741 143.46 6.84463C140.235 7.17788 136.517 6.45968 133.026 6.20372C132.829 6.18939 132.503 5.98872 132.524 5.9749C132.764 5.82286 133.011 5.61503 133.351 5.56487C135.108 5.30482 136.868 4.95314 138.671 4.87789C145.632 4.58662 152.644 4.52263 159.571 4.12181C167.962 3.63652 176.286 2.89682 184.639 2.26564C188.582 1.9672 192.504 1.57406 196.469 1.38465C202.929 1.07546 209.413 0.862508 215.894 0.674639C225.088 0.408448 234.345 -0.206861 243.474 0.0700792C255.19 0.424829 267.014 0.246685 278.65 1.32322C283.787 1.79827 289.109 1.8382 294.35 2.06037C303.254 2.43713 311.973 3.38978 320.761 4.00919C331.218 4.74582 341.171 6.04299 351.038 7.65446C364.291 9.8188 377.5 12.1341 388.87 16.0717C398.498 19.4068 408.081 22.6891 415.155 27.5681C419.889 30.834 426.098 33.7345 430.472 37.2001C432.916 39.1356 434.696 41.2569 436.753 43.2999C439.592 46.12 442.623 48.9027 445.187 51.7776C449.663 56.7963 453.691 61.8314 454.784 67.3892C455.769 72.3976 459.291 77.2976 460.233 82.3061C460.813 85.3888 461.667 88.5948 459.292 91.8193C457.719 93.9545 458.307 96.4904 457.872 98.8293C457.045 103.281 455.149 107.596 453.011 111.899C451.271 115.403 446.983 118.432 443.143 121.477C439.095 124.686 434.144 127.643 429.619 130.72C428.834 131.254 428.377 131.91 427.479 132.389C422.993 134.787 418.746 137.315 413.779 139.474C406.93 142.45 399.646 145.216 392.31 147.931C376.584 153.751 358.251 157.485 340.733 161.851C335.532 163.148 329.666 163.936 323.937 164.666C310.335 166.398 296.674 168.025 282.959 169.546C278.588 170.031 273.704 169.677 269.55 170.366C262.119 171.597 254.439 170.703 246.874 171.491C241.101 172.092 234.333 172.387 228.2 171.065C226.971 170.801 225.293 170.98 223.822 170.984C205 171.042 186.747 169.559 168.797 166.885C157.595 165.215 145.945 164.209 134.738 162.544C125.824 161.22 117.286 159.337 108.564 157.722C93.2317 154.882 79.1882 150.953 65.7056 146.548C62.8121 145.603 59.6892 144.756 57.1783 143.618C45.774 138.448 33.7424 133.498 26.7902 126.578C22.2978 122.104 17.8163 117.625 13.6173 113.089C9.60318 108.753 5.08903 104.5 2.6325 99.8746C2.29555 99.2404 1.80424 98.6056 1.72924 97.9622C1.42598 95.374 1.44011 92.8129 0.517279 90.2022C-0.397942 87.6166 -0.221854 84.5262 2.04989 82.217C4.95751 79.2612 3.21294 75.8207 7.59339 73.1619C8.84339 72.4022 9.58905 71.4619 10.6064 70.6147C20.3293 62.522 33.6717 55.8037 48.3479 49.7556C55.9642 46.6166 64.0349 43.5569 73.8186 41.6936C80.1697 40.4839 85.6991 38.3483 91.9654 37.0097C103.614 34.5203 115.408 32.1522 127.375 30.0252C140.225 27.7421 153.253 25.6551 166.371 23.737C181.589 21.5122 196.843 19.3679 212.582 17.9525C217.548 17.5061 221.734 17.7113 226.254 18.1429C226.715 18.1869 227.318 18.6015 227.305 18.8375C227.292 19.0669 226.627 19.4447 226.152 19.4815C224.947 19.5742 223.672 19.5726 222.454 19.503C214.194 19.0305 206.205 20.0999 198.502 21.0193C182.044 22.984 165.79 25.3822 149.696 27.9418C135.191 30.2489 120.764 32.746 106.758 35.6439C93.9741 38.2889 81.7339 41.5272 69.3903 44.6237C64.8925 45.752 60.4925 47.0563 56.5555 48.572C42.3326 54.0474 29.1587 60.0198 19.3489 67.4219C12.8412 72.3316 7.68361 77.4332 5.84556 83.3242C4.95642 86.173 4.26946 89.0002 4.83034 91.7727C5.95425 97.309 7.75861 102.775 13.4217 107.88C18.588 112.538 22.1804 117.576 27.0054 122.325C34.5196 129.72 50.4598 138.964 61.3675 142.863C75.6273 147.962 90.9839 152.161 107.285 155.632C122.589 158.891 138.259 161.58 154.693 163.355C166.798 164.663 178.628 166.529 190.672 167.977C195.226 168.525 200.071 168.509 204.725 168.906C215.357 169.811 226.157 169.2 236.744 169.741C241.495 169.984 245.809 169.337 250.411 169.502C255.098 169.669 259.871 169.36 264.674 169.037C279.74 168.024 294.336 166.084 309.214 164.757C317.25 164.04 324.504 162.432 332.143 161.275C344.117 159.462 354.373 156.145 365.498 153.608C379.936 150.314 392.286 145.858 403.99 140.783C410.838 137.814 416.519 134.427 423.021 131.02Z" fill="black"/>
<path d="M423.021 131.02C434.071 124.603 443.138 117.922 448 110.166C449.571 107.649 450.747 105.081 451.519 102.483C452.386 99.5798 452.646 96.6348 453.071 93.7041C453.363 91.6939 453.632 89.701 454.234 87.6903C455.006 85.1128 453.468 82.3634 452.642 79.7071C452.037 77.7629 450.588 75.8673 450.191 73.92C448.868 67.4542 445.976 61.1649 440.556 55.1966C435.617 49.7586 430.257 44.4016 424.801 39.0726C423.002 37.3142 420.614 35.6439 417.992 34.1256C412.233 30.791 406.533 27.4012 400.093 24.3697C394.188 21.5906 387.914 18.793 380.769 16.8385C372.139 14.4782 362.459 12.9527 353.154 11.1564C348.924 10.3399 344.462 9.79269 340.178 9.032C329.893 7.2045 319.244 6.16226 308.357 5.54132C295.617 4.81441 283.047 3.63601 270.138 3.27C262.933 3.06575 255.674 3.00278 248.461 2.74171C244.937 2.61476 241.456 2.15148 237.936 2.08954C228.331 1.9201 218.826 2.32809 209.457 3.42664C207.593 3.64522 205.515 3.46503 203.535 3.45684C196.13 3.42715 188.956 4.08188 181.722 4.78626C175.889 5.35447 169.797 5.44303 163.806 5.51982C156.887 5.60889 150.207 6.14741 143.46 6.84463C140.235 7.17788 136.517 6.45968 133.026 6.20372C132.829 6.18939 132.503 5.98872 132.524 5.9749C132.764 5.82286 133.011 5.61503 133.351 5.56487C135.108 5.30482 136.868 4.95314 138.671 4.87789C145.632 4.58662 152.644 4.52263 159.571 4.12181C167.962 3.63652 176.286 2.89682 184.639 2.26564C188.582 1.9672 192.504 1.57406 196.469 1.38465C202.929 1.07546 209.413 0.862508 215.894 0.674639C225.088 0.408448 234.345 -0.206861 243.474 0.0700792C255.19 0.424829 267.014 0.246685 278.65 1.32322C283.787 1.79827 289.109 1.8382 294.35 2.06037C303.254 2.43713 311.973 3.38978 320.761 4.00919C331.218 4.74582 341.171 6.04299 351.038 7.65446C364.291 9.8188 377.5 12.1341 388.87 16.0717C398.498 19.4068 408.081 22.6891 415.155 27.5681C419.889 30.834 426.098 33.7345 430.472 37.2001C432.916 39.1356 434.696 41.2569 436.753 43.2999C439.592 46.12 442.623 48.9027 445.187 51.7776C449.663 56.7963 453.691 61.8314 454.784 67.3892C455.769 72.3976 459.291 77.2976 460.233 82.3061C460.813 85.3888 461.667 88.5948 459.292 91.8193C457.719 93.9545 458.307 96.4904 457.872 98.8293C457.045 103.281 455.149 107.596 453.011 111.899C451.271 115.403 446.983 118.432 443.143 121.477C439.095 124.686 434.144 127.643 429.619 130.72C428.834 131.254 428.377 131.91 427.479 132.389C422.993 134.787 418.746 137.315 413.779 139.474C406.93 142.45 399.646 145.216 392.31 147.931C376.584 153.751 358.251 157.485 340.733 161.851C335.532 163.148 329.666 163.936 323.937 164.666C310.335 166.398 296.674 168.025 282.959 169.546C278.588 170.031 273.704 169.677 269.55 170.366C262.119 171.597 254.439 170.703 246.874 171.491C241.101 172.092 234.333 172.387 228.2 171.065C226.971 170.801 225.293 170.98 223.822 170.984C205 171.042 186.747 169.559 168.797 166.885C157.595 165.215 145.945 164.209 134.738 162.544C125.824 161.22 117.286 159.337 108.564 157.722C93.2317 154.882 79.1882 150.953 65.7056 146.548C62.8121 145.603 59.6892 144.756 57.1783 143.618C45.774 138.448 33.7424 133.498 26.7902 126.578C22.2978 122.104 17.8163 117.625 13.6173 113.089C9.60318 108.753 5.08903 104.5 2.6325 99.8746C2.29555 99.2404 1.80424 98.6056 1.72924 97.9622C1.42598 95.374 1.44011 92.8129 0.517279 90.2022C-0.397942 87.6166 -0.221854 84.5262 2.04989 82.217C4.95751 79.2612 3.21294 75.8207 7.59339 73.1619C8.84339 72.4022 9.58905 71.4619 10.6064 70.6147C20.3293 62.522 33.6717 55.8037 48.3479 49.7556C55.9642 46.6166 64.0349 43.5569 73.8186 41.6936C80.1697 40.4839 85.6991 38.3483 91.9654 37.0097C103.614 34.5203 115.408 32.1522 127.375 30.0252C140.225 27.7421 153.253 25.6551 166.371 23.737C181.589 21.5122 196.843 19.3679 212.582 17.9525C217.548 17.5061 221.734 17.7113 226.254 18.1429C226.715 18.1869 227.318 18.6015 227.305 18.8375C227.292 19.0669 226.627 19.4447 226.152 19.4815C224.947 19.5742 223.672 19.5726 222.454 19.503C214.194 19.0305 206.205 20.0999 198.502 21.0193C182.044 22.984 165.79 25.3822 149.696 27.9418C135.191 30.2489 120.764 32.746 106.758 35.6439C93.9741 38.2889 81.7339 41.5272 69.3903 44.6237C64.8925 45.752 60.4925 47.0563 56.5555 48.572C42.3326 54.0474 29.1587 60.0198 19.3489 67.4219C12.8412 72.3316 7.68361 77.4332 5.84556 83.3242C4.95642 86.173 4.26946 89.0002 4.83034 91.7727C5.95425 97.309 7.75861 102.775 13.4217 107.88C18.588 112.538 22.1804 117.576 27.0054 122.325C34.5196 129.72 50.4598 138.964 61.3675 142.863C75.6273 147.962 90.9839 152.161 107.285 155.632C122.589 158.891 138.259 161.58 154.693 163.355C166.798 164.663 178.628 166.529 190.672 167.977C195.226 168.525 200.071 168.509 204.725 168.906C215.357 169.811 226.157 169.2 236.744 169.741C241.495 169.984 245.809 169.337 250.411 169.502C255.098 169.669 259.871 169.36 264.674 169.037C279.74 168.024 294.336 166.084 309.214 164.757C317.25 164.04 324.504 162.432 332.143 161.275C344.117 159.462 354.373 156.145 365.498 153.608C379.936 150.314 392.286 145.858 403.99 140.783C410.838 137.814 416.519 134.427 423.021 131.02Z" stroke="black" stroke-width="2" mask="url(#path-1-outside-1_529_651)"/>
</svg>
