<svg width="178" height="69" preserveAspectRatio="none" viewBox="0 0 178 69" fill="none" xmlns="http://www.w3.org/2000/svg">
<path d="M22.08 58.4C22.08 61.792 21.216 64.256 19.488 65.792C17.76 67.264 15.104 68 11.52 68H0.96V0.799995H11.616C15.136 0.799995 17.76 1.568 19.488 3.10399C21.216 4.57599 22.08 7.008 22.08 10.4V58.4ZM12.48 10.88C12.48 9.92 12.16 9.44 11.52 9.44H10.56V59.36H11.52C12.16 59.36 12.48 58.88 12.48 57.92V10.88ZM37.4625 9.44H33.6225V29.216H36.9825V37.856H33.6225V59.36H37.9425V68H24.0225V0.799995H37.4625V9.44ZM56.8695 68H43.4295L38.4375 0.799995H48.9975L50.5335 57.44H50.7255L52.2615 0.799995H61.8615L56.8695 68ZM76.275 9.44H72.435V29.216H75.795V37.856H72.435V59.36H76.755V68H62.835V0.799995H76.275V9.44ZM87.81 0.799995V59.36H91.842V68H78.21V0.799995H87.81ZM114.424 58.016C114.424 61.408 113.432 64.032 111.448 65.888C109.464 67.68 106.936 68.576 103.864 68.576C100.792 68.576 98.2638 67.68 96.2798 65.888C94.2958 64.032 93.3038 61.408 93.3038 58.016V10.784C93.3038 7.456 94.2958 4.864 96.2798 3.008C98.3278 1.152 100.888 0.223997 103.96 0.223997C107.032 0.223997 109.528 1.152 111.448 3.008C113.432 4.8 114.424 7.392 114.424 10.784V58.016ZM104.824 10.304C104.824 9.344 104.504 8.86399 103.864 8.86399C103.224 8.86399 102.904 9.344 102.904 10.304V58.496C102.904 59.456 103.224 59.936 103.864 59.936C104.504 59.936 104.824 59.456 104.824 58.496V10.304ZM137.486 30.56C137.486 33.952 136.622 36.416 134.894 37.952C133.166 39.424 130.51 40.16 126.926 40.16H125.966V68H116.366V0.799995H127.022C130.542 0.799995 133.166 1.568 134.894 3.10399C136.622 4.57599 137.486 7.008 137.486 10.4V30.56ZM127.886 10.88C127.886 9.92 127.566 9.44 126.926 9.44H125.966V31.52H126.926C127.566 31.52 127.886 31.04 127.886 30.08V10.88ZM152.869 9.44H149.029V29.216H152.389V37.856H149.029V59.36H153.349V68H139.429V0.799995H152.869V9.44ZM166.324 39.68C166.324 38.72 166.004 38.24 165.364 38.24H164.404V68H154.804V0.799995H165.46C168.98 0.799995 171.604 1.568 173.332 3.10399C175.06 4.57599 175.924 7.008 175.924 10.4V24.032C175.924 25.44 175.892 26.688 175.828 27.776C175.764 28.864 175.572 29.824 175.252 30.656C174.996 31.424 174.58 32.064 174.004 32.576C173.492 33.088 172.788 33.504 171.892 33.824V34.016C173.748 34.592 174.868 35.648 175.252 37.184C175.7 38.72 175.924 40.928 175.924 43.808V59.168C175.924 60.256 175.924 61.184 175.924 61.952C175.988 62.656 176.052 63.328 176.116 63.968C176.18 64.608 176.276 65.216 176.404 65.792C176.596 66.368 176.82 67.04 177.076 67.808V68H167.188C166.868 66.72 166.644 65.504 166.516 64.352C166.388 63.136 166.324 61.44 166.324 59.264V39.68ZM166.324 10.88C166.324 9.92 166.004 9.44 165.364 9.44H164.404V29.6H165.364C166.004 29.6 166.324 29.12 166.324 28.16V10.88Z" fill="white"/>
</svg>
