<svg width="175" height="69" preserveAspectRatio="none" viewBox="0 0 175 69" fill="none" xmlns="http://www.w3.org/2000/svg">
<path d="M14.4 9.44H10.56V30.176H13.92V38.816H10.56V68H0.96V0.799995H14.4V9.44ZM27.3863 39.68C27.3863 38.72 27.0663 38.24 26.4263 38.24H25.4663V68H15.8663V0.799995H26.5223C30.0423 0.799995 32.6663 1.568 34.3943 3.10399C36.1223 4.57599 36.9863 7.008 36.9863 10.4V24.032C36.9863 25.44 36.9543 26.688 36.8903 27.776C36.8263 28.864 36.6343 29.824 36.3143 30.656C36.0583 31.424 35.6423 32.064 35.0663 32.576C34.5543 33.088 33.8503 33.504 32.9543 33.824V34.016C34.8103 34.592 35.9303 35.648 36.3143 37.184C36.7623 38.72 36.9863 40.928 36.9863 43.808V59.168C36.9863 60.256 36.9863 61.184 36.9863 61.952C37.0503 62.656 37.1143 63.328 37.1783 63.968C37.2423 64.608 37.3383 65.216 37.4663 65.792C37.6583 66.368 37.8823 67.04 38.1383 67.808V68H28.2503C27.9303 66.72 27.7063 65.504 27.5782 64.352C27.4503 63.136 27.3863 61.44 27.3863 59.264V39.68ZM27.3863 10.88C27.3863 9.92 27.0663 9.44 26.4263 9.44H25.4663V29.6H26.4263C27.0663 29.6 27.3863 29.12 27.3863 28.16V10.88ZM60.0488 58.016C60.0488 61.408 59.0568 64.032 57.0728 65.888C55.0888 67.68 52.5608 68.576 49.4888 68.576C46.4168 68.576 43.8888 67.68 41.9048 65.888C39.9208 64.032 38.9288 61.408 38.9288 58.016V10.784C38.9288 7.456 39.9208 4.864 41.9048 3.008C43.9528 1.152 46.5128 0.223997 49.5848 0.223997C52.6568 0.223997 55.1528 1.152 57.0728 3.008C59.0568 4.8 60.0488 7.392 60.0488 10.784V58.016ZM50.4488 10.304C50.4488 9.344 50.1288 8.86399 49.4888 8.86399C48.8488 8.86399 48.5288 9.344 48.5288 10.304V58.496C48.5288 59.456 48.8488 59.936 49.4888 59.936C50.1288 59.936 50.4488 59.456 50.4488 58.496V10.304ZM87.9113 68H75.9113L69.2873 16.16H69.0953L70.6313 37.76L71.1113 68H61.9913V0.799995H73.9913L80.6153 52.64H80.8073L79.2713 31.04L78.7913 0.799995H87.9113V68ZM108.649 9.44H103.849V68H94.2488V9.44H89.4488V0.799995H108.649V9.44ZM123.525 9.44H119.685V29.216H123.045V37.856H119.685V59.36H124.005V68H110.085V0.799995H123.525V9.44ZM151.38 68H139.38L132.756 16.16H132.564L134.1 37.76L134.58 68H125.46V0.799995H137.46L144.084 52.64H144.276L142.74 31.04L142.26 0.799995H151.38V68ZM174.518 58.4C174.518 61.792 173.654 64.256 171.926 65.792C170.198 67.264 167.542 68 163.958 68H153.398V0.799995H164.054C167.574 0.799995 170.198 1.568 171.926 3.10399C173.654 4.57599 174.518 7.008 174.518 10.4V58.4ZM164.918 10.88C164.918 9.92 164.598 9.44 163.958 9.44H162.998V59.36H163.958C164.598 59.36 164.918 58.88 164.918 57.92V10.88Z" fill="white"/>
</svg>
