<svg width="97" height="69" viewBox="0 0 97 69" fill="none" xmlns="http://www.w3.org/2000/svg">
<path d="M12.48 39.68C12.48 38.72 12.16 38.24 11.52 38.24H10.56V68H0.96V0.799995H11.616C15.136 0.799995 17.76 1.568 19.488 3.10399C21.216 4.57599 22.08 7.008 22.08 10.4V24.032C22.08 25.44 22.048 26.688 21.984 27.776C21.92 28.864 21.728 29.824 21.408 30.656C21.152 31.424 20.736 32.064 20.16 32.576C19.648 33.088 18.944 33.504 18.048 33.824V34.016C19.904 34.592 21.024 35.648 21.408 37.184C21.856 38.72 22.08 40.928 22.08 43.808V59.168C22.08 60.256 22.08 61.184 22.08 61.952C22.144 62.656 22.208 63.328 22.272 63.968C22.336 64.608 22.432 65.216 22.56 65.792C22.752 66.368 22.976 67.04 23.232 67.808V68H13.344C13.024 66.72 12.8 65.504 12.672 64.352C12.544 63.136 12.48 61.44 12.48 59.264V39.68ZM12.48 10.88C12.48 9.92 12.16 9.44 11.52 9.44H10.56V29.6H11.52C12.16 29.6 12.48 29.12 12.48 28.16V10.88ZM45.1425 58.016C45.1425 61.408 44.1505 64.032 42.1665 65.888C40.1825 67.68 37.6545 68.576 34.5825 68.576C31.5105 68.576 28.9825 67.68 26.9985 65.888C25.0145 64.032 24.0225 61.408 24.0225 58.016V0.799995H33.6225V58.496C33.6225 59.456 33.9425 59.936 34.5825 59.936C35.2225 59.936 35.5425 59.456 35.5425 58.496V0.799995H45.1425V58.016ZM56.685 0.799995V59.36H60.717V68H47.085V0.799995H56.685ZM71.7788 68H62.1788V0.799995H71.7788V68ZM89.262 45.92V68H79.662V45.92L72.75 0.799995H82.542L83.982 23.936L84.366 33.536H84.558L84.942 23.936L86.382 0.799995H96.174L89.262 45.92Z" fill="white"/>
</svg>
