<svg width="82" height="68" viewBox="0 0 82 68" fill="none" xmlns="http://www.w3.org/2000/svg">
<path d="M19.68 9.44H14.88V68H5.28V9.44H0.48V0.799995H19.68V9.44ZM42.2812 68H31.7213L31.1453 51.968H28.4573L27.8813 68H18.2812L23.5613 0.799995H37.0013L42.2812 68ZM30.8573 43.328L30.1853 22.976L29.8973 11.36H29.7053L29.4173 22.976L28.7453 43.328H30.8573ZM61.0973 31.52V31.712L66.4733 68H56.5853L53.0333 37.088H52.8413V68H43.2413V0.799995H52.8413V27.968H53.0333L56.5853 0.799995H66.4733L61.0973 31.52ZM80.8688 9.44H77.0288V29.216H80.3888V37.856H77.0288V59.36H81.3488V68H67.4288V0.799995H80.8688V9.44Z" fill="white"/>
</svg>
