<svg width="135" height="69" viewBox="0 0 135 69" fill="none" xmlns="http://www.w3.org/2000/svg">
<path d="M19.68 9.44H14.88V68H5.28V9.44H0.48V0.799995H19.68V9.44ZM30.7163 68H21.1163V0.799995H30.7163V68ZM67.2075 68H58.0875L58.6635 24.8L58.5675 13.28H58.3755L57.7035 24.8L54.2475 68H45.7035L42.2475 24.8L41.4795 13.28H41.2875L41.1915 24.8L41.7675 68H32.6475V0.799995H48.2955L49.4475 39.104L49.9275 49.76H50.1195L50.5035 39.104L51.5595 0.799995H67.2075V68ZM82.65 9.44H78.81V29.216H82.17V37.856H78.81V59.36H83.13V68H69.21V0.799995H82.65V9.44ZM111.93 9.44H107.13V68H97.53V9.44H92.73V0.799995H111.93V9.44ZM134.486 58.016C134.486 61.408 133.494 64.032 131.51 65.888C129.526 67.68 126.998 68.576 123.926 68.576C120.854 68.576 118.326 67.68 116.342 65.888C114.358 64.032 113.366 61.408 113.366 58.016V10.784C113.366 7.456 114.358 4.864 116.342 3.008C118.39 1.152 120.95 0.223997 124.022 0.223997C127.094 0.223997 129.59 1.152 131.51 3.008C133.494 4.8 134.486 7.392 134.486 10.784V58.016ZM124.886 10.304C124.886 9.344 124.566 8.86399 123.926 8.86399C123.286 8.86399 122.966 9.344 122.966 10.304V58.496C122.966 59.456 123.286 59.936 123.926 59.936C124.566 59.936 124.886 59.456 124.886 58.496V10.304Z" fill="white"/>
</svg>
