<svg width="364" height="69" viewBox="0 0 364 69" fill="none" xmlns="http://www.w3.org/2000/svg">
<path d="M19.68 9.44H14.88V68H5.28V9.44H0.48V0.799995H19.68V9.44ZM30.7163 68H21.1163V0.799995H30.7163V68ZM67.2075 68H58.0875L58.6635 24.8L58.5675 13.28H58.3755L57.7035 24.8L54.2475 68H45.7035L42.2475 24.8L41.4795 13.28H41.2875L41.1915 24.8L41.7675 68H32.6475V0.799995H48.2955L49.4475 39.104L49.9275 49.76H50.1195L50.5035 39.104L51.5595 0.799995H67.2075V68ZM82.65 9.44H78.81V29.216H82.17V37.856H78.81V59.36H83.13V68H69.21V0.799995H82.65V9.44ZM111.93 9.44H107.13V68H97.53V9.44H92.73V0.799995H111.93V9.44ZM134.486 58.016C134.486 61.408 133.494 64.032 131.51 65.888C129.526 67.68 126.998 68.576 123.926 68.576C120.854 68.576 118.326 67.68 116.342 65.888C114.358 64.032 113.366 61.408 113.366 58.016V10.784C113.366 7.456 114.358 4.864 116.342 3.008C118.39 1.152 120.95 0.223997 124.022 0.223997C127.094 0.223997 129.59 1.152 131.51 3.008C133.494 4.8 134.486 7.392 134.486 10.784V58.016ZM124.886 10.304C124.886 9.344 124.566 8.86399 123.926 8.86399C123.286 8.86399 122.966 9.344 122.966 10.304V58.496C122.966 59.456 123.286 59.936 123.926 59.936C124.566 59.936 124.886 59.456 124.886 58.496V10.304ZM163.774 9.44H158.974V68H149.374V9.44H144.574V0.799995H163.774V9.44ZM186.375 68H175.815L175.239 51.968H172.551L171.975 68H162.375L167.655 0.799995H181.095L186.375 68ZM174.951 43.328L174.279 22.976L173.991 11.36H173.799L173.511 22.976L172.839 43.328H174.951ZM205.191 31.52V31.712L210.567 68H200.679L197.127 37.088H196.935V68H187.335V0.799995H196.935V27.968H197.127L200.679 0.799995H210.567L205.191 31.52ZM224.963 9.44H221.123V29.216H224.483V37.856H221.123V59.36H225.443V68H211.523V0.799995H224.963V9.44ZM258.562 68H248.003L247.427 51.968H244.739L244.163 68H234.562L239.843 0.799995H253.283L258.562 68ZM247.139 43.328L246.467 22.976L246.179 11.36H245.987L245.699 22.976L245.027 43.328H247.139ZM271.043 10.304C271.043 9.344 270.723 8.86399 270.083 8.86399C269.443 8.86399 269.123 9.344 269.123 10.304V58.496C269.123 59.456 269.443 59.936 270.083 59.936C270.723 59.936 271.043 59.456 271.043 58.496V39.584H280.643V58.016C280.643 61.408 279.651 64.032 277.667 65.888C275.683 67.68 273.155 68.576 270.083 68.576C267.011 68.576 264.483 67.68 262.499 65.888C260.515 64.032 259.523 61.408 259.523 58.016V10.784C259.523 7.456 260.515 4.864 262.499 3.008C264.547 1.152 267.107 0.223997 270.179 0.223997C273.251 0.223997 275.747 1.152 277.667 3.008C279.651 4.8 280.643 7.392 280.643 10.784V26.24H271.043V10.304ZM301.305 9.44H296.505V68H286.905V9.44H282.105V0.799995H301.305V9.44ZM312.341 68H302.741V0.799995H312.341V68ZM335.393 58.016C335.393 61.408 334.401 64.032 332.417 65.888C330.433 67.68 327.905 68.576 324.833 68.576C321.761 68.576 319.233 67.68 317.249 65.888C315.265 64.032 314.273 61.408 314.273 58.016V10.784C314.273 7.456 315.265 4.864 317.249 3.008C319.297 1.152 321.857 0.223997 324.929 0.223997C328.001 0.223997 330.497 1.152 332.417 3.008C334.401 4.8 335.393 7.392 335.393 10.784V58.016ZM325.793 10.304C325.793 9.344 325.473 8.86399 324.833 8.86399C324.193 8.86399 323.873 9.344 323.873 10.304V58.496C323.873 59.456 324.193 59.936 324.833 59.936C325.473 59.936 325.793 59.456 325.793 58.496V10.304ZM363.255 68H351.255L344.631 16.16H344.439L345.975 37.76L346.455 68H337.335V0.799995H349.335L355.959 52.64H356.151L354.615 31.04L354.135 0.799995H363.255V68Z" fill="white"/>
</svg>
